<?xml version="1.0" encoding="UTF-8"?>
<svg width="700pt" height="700pt" version="1.1" viewBox="0 0 700 700" xmlns="http://www.w3.org/2000/svg" xmlns:xlink="http://www.w3.org/1999/xlink">
 <defs>
  <symbol id="k" overflow="visible">
   <path d="m20.844-1.25c-1.0742 0.5625-2.1953 0.98438-3.3594 1.2656-1.168 0.28125-2.3828 0.42188-3.6406 0.42188-3.7812 0-6.7773-1.0508-8.9844-3.1562-2.2109-2.1133-3.3125-4.9766-3.3125-8.5938 0-3.625 1.1016-6.4922 3.3125-8.6094 2.207-2.1133 5.2031-3.1719 8.9844-3.1719 1.2578 0 2.4727 0.14844 3.6406 0.4375 1.1641 0.28125 2.2852 0.69922 3.3594 1.25v4.7031c-1.0859-0.73828-2.1523-1.2812-3.2031-1.625-1.0547-0.34375-2.1641-0.51562-3.3281-0.51562-2.0859 0-3.7266 0.66797-4.9219 2-1.1992 1.3359-1.7969 3.1797-1.7969 5.5312 0 2.3359 0.59766 4.1719 1.7969 5.5156 1.1953 1.3359 2.8359 2 4.9219 2 1.1641 0 2.2734-0.17188 3.3281-0.51562 1.0508-0.34375 2.1172-0.88281 3.2031-1.625z"/>
  </symbol>
  <symbol id="d" overflow="visible">
   <path d="m15.25-12.375c-0.48047-0.22656-0.95312-0.39453-1.4219-0.5-0.46875-0.10156-0.94531-0.15625-1.4219-0.15625-1.3984 0-2.4766 0.44922-3.2344 1.3438-0.75 0.89844-1.125 2.1797-1.125 3.8438v7.8438h-5.4375v-17.016h5.4375v2.7969c0.69531-1.1133 1.5-1.9258 2.4062-2.4375 0.90625-0.50781 1.9922-0.76562 3.2656-0.76562 0.17578 0 0.36719 0.011719 0.57812 0.03125 0.21875 0.011719 0.53125 0.042969 0.9375 0.09375z"/>
  </symbol>
  <symbol id="c" overflow="visible">
   <path d="m19.594-8.5469v1.5469h-12.719c0.13281 1.2734 0.59766 2.2305 1.3906 2.875 0.78906 0.63672 1.8945 0.95312 3.3125 0.95312 1.1445 0 2.3164-0.16406 3.5156-0.5 1.1953-0.34375 2.4297-0.85938 3.7031-1.5469v4.1875c-1.293 0.49219-2.5859 0.85547-3.875 1.0938-1.2812 0.25-2.5625 0.375-3.8438 0.375-3.0859 0-5.4805-0.78125-7.1875-2.3438-1.6992-1.5625-2.5469-3.7539-2.5469-6.5781 0-2.7812 0.83203-4.9609 2.5-6.5469 1.6758-1.5938 3.9844-2.3906 6.9219-2.3906 2.6758 0 4.8164 0.80859 6.4219 2.4219 1.6016 1.6055 2.4062 3.7578 2.4062 6.4531zm-5.5938-1.8125c0-1.0312-0.30469-1.8633-0.90625-2.5-0.59375-0.63281-1.3828-0.95312-2.3594-0.95312-1.0547 0-1.9062 0.29688-2.5625 0.89062s-1.0703 1.4492-1.2344 2.5625z"/>
  </symbol>
  <symbol id="e" overflow="visible">
   <path d="m10.234-7.6562c-1.1367 0-1.9922 0.19531-2.5625 0.57812-0.5625 0.38672-0.84375 0.95312-0.84375 1.7031 0 0.6875 0.22656 1.2305 0.6875 1.625 0.45703 0.38672 1.0977 0.57812 1.9219 0.57812 1.0195 0 1.8789-0.36328 2.5781-1.0938 0.69531-0.73828 1.0469-1.6602 1.0469-2.7656v-0.625zm8.3125-2.0469v9.7031h-5.4844v-2.5156c-0.73047 1.0312-1.5547 1.7812-2.4688 2.25-0.90625 0.46875-2.0117 0.70312-3.3125 0.70312-1.7617 0-3.1953-0.50781-4.2969-1.5312-1.0938-1.0312-1.6406-2.3672-1.6406-4.0156 0-1.9883 0.67969-3.4453 2.0469-4.375 1.375-0.9375 3.5312-1.4062 6.4688-1.4062h3.2031v-0.42188c0-0.86328-0.33984-1.4922-1.0156-1.8906-0.67969-0.40625-1.7344-0.60938-3.1719-0.60938-1.168 0-2.2578 0.12109-3.2656 0.35938-1 0.23047-1.9297 0.57812-2.7812 1.0469v-4.1562c1.1641-0.28125 2.332-0.49219 3.5-0.64062 1.1758-0.14453 2.3516-0.21875 3.5312-0.21875 3.0703 0 5.2852 0.60547 6.6406 1.8125 1.3633 1.2109 2.0469 3.1797 2.0469 5.9062z"/>
  </symbol>
  <symbol id="b" overflow="visible">
   <path d="m8.5469-21.844v4.8281h5.6094v3.8906h-5.6094v7.2188c0 0.79297 0.15625 1.3281 0.46875 1.6094 0.32031 0.27344 0.94531 0.40625 1.875 0.40625h2.7969v3.8906h-4.6719c-2.1484 0-3.668-0.44531-4.5625-1.3438-0.89844-0.89453-1.3438-2.4141-1.3438-4.5625v-7.2188h-2.7031v-3.8906h2.7031v-4.8281z"/>
  </symbol>
  <symbol id="n" overflow="visible">
   <path d="m14.188-14.516v-9.125h5.4688v23.641h-5.4688v-2.4531c-0.75 1-1.5781 1.7344-2.4844 2.2031-0.89844 0.45703-1.9375 0.6875-3.125 0.6875-2.0938 0-3.8203-0.83203-5.1719-2.5-1.3438-1.6641-2.0156-3.8047-2.0156-6.4219 0-2.625 0.67188-4.7695 2.0156-6.4375 1.3516-1.6641 3.0781-2.5 5.1719-2.5 1.1758 0 2.2188 0.23438 3.125 0.70312s1.7344 1.2031 2.4844 2.2031zm-3.5781 11c1.1562 0 2.0391-0.42188 2.6562-1.2656 0.61328-0.85156 0.92188-2.0859 0.92188-3.7031 0-1.625-0.30859-2.8594-0.92188-3.7031-0.61719-0.85156-1.5-1.2812-2.6562-1.2812s-2.043 0.42969-2.6562 1.2812c-0.61719 0.84375-0.92188 2.0781-0.92188 3.7031 0 1.6172 0.30469 2.8516 0.92188 3.7031 0.61328 0.84375 1.5 1.2656 2.6562 1.2656z"/>
  </symbol>
  <symbol id="m" overflow="visible">
   <path d="m11.672-3.5156c1.1562 0 2.0391-0.42188 2.6562-1.2656 0.61328-0.85156 0.92188-2.0859 0.92188-3.7031 0-1.625-0.30859-2.8594-0.92188-3.7031-0.61719-0.85156-1.5-1.2812-2.6562-1.2812-1.168 0-2.0625 0.42969-2.6875 1.2812-0.625 0.85547-0.9375 2.0898-0.9375 3.7031 0 1.6055 0.3125 2.8359 0.9375 3.6875 0.625 0.85547 1.5195 1.2812 2.6875 1.2812zm-3.625-11c0.75-1 1.5781-1.7344 2.4844-2.2031 0.91406-0.46875 1.9688-0.70312 3.1562-0.70312 2.0938 0 3.8125 0.83594 5.1562 2.5 1.3516 1.668 2.0312 3.8125 2.0312 6.4375 0 2.6172-0.67969 4.7578-2.0312 6.4219-1.3438 1.668-3.0625 2.5-5.1562 2.5-1.1875 0-2.2422-0.23438-3.1562-0.70312-0.90625-0.46875-1.7344-1.1953-2.4844-2.1875v2.4531h-5.4375v-23.641h5.4375z"/>
  </symbol>
  <symbol id="l" overflow="visible">
   <path d="m0.375-17.016h5.4375l4.5781 11.547 3.8906-11.547h5.4375l-7.1562 18.625c-0.71875 1.8945-1.5586 3.2188-2.5156 3.9688-0.96094 0.75781-2.2188 1.1406-3.7812 1.1406h-3.1562v-3.5781h1.7031c0.92578 0 1.5977-0.14844 2.0156-0.4375 0.41406-0.29297 0.74219-0.82031 0.98438-1.5781l0.14062-0.46875z"/>
  </symbol>
  <symbol id="f" overflow="visible">
   <path d="m2.6094-17.016h5.4375v17.016h-5.4375zm0-6.625h5.4375v4.4375h-5.4375z"/>
  </symbol>
  <symbol id="j" overflow="visible">
   <path d="m15.906-16.484v4.1406c-1.168-0.48828-2.293-0.85156-3.375-1.0938-1.0859-0.25-2.1055-0.375-3.0625-0.375-1.043 0-1.8125 0.13281-2.3125 0.39062-0.5 0.26172-0.75 0.65625-0.75 1.1875 0 0.4375 0.1875 0.77734 0.5625 1.0156 0.38281 0.23047 1.0664 0.40234 2.0469 0.51562l0.96875 0.125c2.7812 0.35547 4.6484 0.9375 5.6094 1.75 0.96875 0.8125 1.4531 2.0859 1.4531 3.8125 0 1.8125-0.67188 3.1797-2.0156 4.0938-1.3359 0.90625-3.3281 1.3594-5.9844 1.3594-1.1172 0-2.2773-0.089844-3.4844-0.26562-1.1992-0.17578-2.4297-0.44141-3.6875-0.79688v-4.125c1.082 0.52344 2.1914 0.91797 3.3281 1.1875 1.1328 0.26172 2.2891 0.39062 3.4688 0.39062 1.0625 0 1.8594-0.14453 2.3906-0.4375 0.53906-0.30078 0.8125-0.73828 0.8125-1.3125 0-0.48828-0.1875-0.84766-0.5625-1.0781-0.36719-0.23828-1.1016-0.42578-2.2031-0.5625l-0.95312-0.125c-2.418-0.30078-4.1172-0.85938-5.0938-1.6719-0.96875-0.82031-1.4531-2.0703-1.4531-3.75 0-1.8008 0.61328-3.1328 1.8438-4 1.2383-0.875 3.1328-1.3125 5.6875-1.3125 1 0 2.0508 0.078125 3.1562 0.23438 1.1016 0.14844 2.3047 0.38281 3.6094 0.70312z"/>
  </symbol>
  <symbol id="i" overflow="visible">
   <path d="m19.719-10.359v10.359h-5.4688v-7.9219c0-1.4688-0.039062-2.4766-0.10938-3.0312-0.0625-0.5625-0.17188-0.97656-0.32812-1.25-0.21875-0.35156-0.51172-0.62891-0.875-0.82812-0.36719-0.19531-0.77734-0.29688-1.2344-0.29688-1.1367 0-2.0312 0.44531-2.6875 1.3281-0.64844 0.875-0.96875 2.0859-0.96875 3.625v8.375h-5.4375v-17.016h5.4375v2.5c0.82031-1 1.6914-1.7344 2.6094-2.2031 0.92578-0.46875 1.9453-0.70312 3.0625-0.70312 1.957 0 3.4453 0.60547 4.4688 1.8125 1.0195 1.1992 1.5312 2.9492 1.5312 5.25z"/>
  </symbol>
  <symbol id="a" overflow="visible">
   <path d="m10.703-13.531c-1.1992 0-2.1172 0.43359-2.75 1.2969-0.63672 0.86719-0.95312 2.1172-0.95312 3.75 0 1.625 0.31641 2.8711 0.95312 3.7344 0.63281 0.86719 1.5508 1.2969 2.75 1.2969 1.1875 0 2.0938-0.42969 2.7188-1.2969 0.63281-0.86328 0.95312-2.1094 0.95312-3.7344 0-1.6328-0.32031-2.8828-0.95312-3.75-0.625-0.86328-1.5312-1.2969-2.7188-1.2969zm0-3.8906c2.9258 0 5.2109 0.79297 6.8594 2.375 1.6445 1.5742 2.4688 3.7617 2.4688 6.5625 0 2.793-0.82422 4.9805-2.4688 6.5625-1.6484 1.5742-3.9336 2.3594-6.8594 2.3594-2.9375 0-5.2344-0.78516-6.8906-2.3594-1.6484-1.582-2.4688-3.7695-2.4688-6.5625 0-2.8008 0.82031-4.9883 2.4688-6.5625 1.6562-1.582 3.9531-2.375 6.8906-2.375z"/>
  </symbol>
  <symbol id="u" overflow="visible">
   <path d="m1.75-22.672h19.062v3.5312l-12.172 14.719h12.516v4.4219h-19.766v-3.5469l12.172-14.719h-11.812z"/>
  </symbol>
  <symbol id="h" overflow="visible">
   <path d="m2.4375-6.625v-10.391h5.4688v1.7031c0 0.92969-0.007812 2.0898-0.015625 3.4844-0.011719 1.3867-0.015625 2.3125-0.015625 2.7812 0 1.3672 0.03125 2.3516 0.09375 2.9531 0.070312 0.60547 0.19531 1.043 0.375 1.3125 0.21875 0.35547 0.50391 0.63281 0.85938 0.82812 0.36328 0.1875 0.78125 0.28125 1.25 0.28125 1.1328 0 2.0234-0.42969 2.6719-1.2969 0.64453-0.875 0.96875-2.0859 0.96875-3.6406v-8.4062h5.4375v17.016h-5.4375v-2.4531c-0.82422 0.99219-1.6953 1.7188-2.6094 2.1875-0.91797 0.46875-1.9297 0.70312-3.0312 0.70312-1.9609 0-3.4531-0.59766-4.4844-1.7969-1.0234-1.207-1.5312-2.9609-1.5312-5.2656z"/>
  </symbol>
  <symbol id="g" overflow="visible">
   <path d="m16.359-16.484v4.4375c-0.74219-0.50781-1.4844-0.88281-2.2344-1.125-0.74219-0.23828-1.5117-0.35938-2.3125-0.35938-1.5117 0-2.6953 0.44531-3.5469 1.3281-0.84375 0.88672-1.2656 2.125-1.2656 3.7188 0 1.5859 0.42188 2.8203 1.2656 3.7031 0.85156 0.88672 2.0352 1.3281 3.5469 1.3281 0.85156 0 1.6602-0.125 2.4219-0.375 0.76953-0.25 1.4766-0.625 2.125-1.125v4.4531c-0.85547 0.3125-1.7188 0.54688-2.5938 0.70312s-1.75 0.23438-2.625 0.23438c-3.0742 0-5.4766-0.78516-7.2031-2.3594-1.7305-1.5703-2.5938-3.7578-2.5938-6.5625 0-2.8125 0.86328-5.0039 2.5938-6.5781 1.7266-1.5703 4.1289-2.3594 7.2031-2.3594 0.88281 0 1.7578 0.078125 2.625 0.23438 0.86328 0.15625 1.7266 0.39062 2.5938 0.70312z"/>
  </symbol>
  <symbol id="t" overflow="visible">
   <path d="m13.812-23.641v3.5781h-3.0156c-0.77344 0-1.3086 0.14062-1.6094 0.42188-0.30469 0.27344-0.45312 0.75-0.45312 1.4375v1.1875h4.6406v3.8906h-4.6406v13.125h-5.4375v-13.125h-2.7031v-3.8906h2.7031v-1.1875c0-1.8516 0.51562-3.2227 1.5469-4.1094 1.0312-0.88281 2.6289-1.3281 4.7969-1.3281z"/>
  </symbol>
  <symbol id="s" overflow="visible">
   <path d="m18.375-14.188c0.6875-1.0508 1.5039-1.8516 2.4531-2.4062 0.94531-0.55078 1.9883-0.82812 3.125-0.82812 1.957 0 3.4453 0.60547 4.4688 1.8125 1.0195 1.1992 1.5312 2.9492 1.5312 5.25v10.359h-5.4688v-8.875c0.007813-0.125 0.015625-0.25781 0.015625-0.40625 0.007812-0.14453 0.015625-0.34766 0.015625-0.60938 0-1.207-0.17969-2.082-0.53125-2.625-0.35547-0.53906-0.92969-0.8125-1.7188-0.8125-1.0312 0-1.8281 0.42969-2.3906 1.2812-0.5625 0.85547-0.85547 2.0859-0.875 3.6875v8.3594h-5.4688v-8.875c0-1.8828-0.16406-3.0977-0.48438-3.6406-0.32422-0.53906-0.90234-0.8125-1.7344-0.8125-1.043 0-1.8516 0.43359-2.4219 1.2969-0.5625 0.85547-0.84375 2.0742-0.84375 3.6562v8.375h-5.4688v-17.016h5.4688v2.5c0.66406-0.96875 1.4297-1.6914 2.2969-2.1719 0.875-0.48828 1.832-0.73438 2.875-0.73438 1.1758 0 2.2109 0.28906 3.1094 0.85938 0.90625 0.5625 1.5859 1.3555 2.0469 2.375z"/>
  </symbol>
  <symbol id="r" overflow="visible">
   <path d="m19.719-10.359v10.359h-5.4688v-7.9062c0-1.4766-0.039062-2.4922-0.10938-3.0469-0.0625-0.5625-0.17188-0.97656-0.32812-1.25-0.21875-0.35156-0.51172-0.62891-0.875-0.82812-0.36719-0.19531-0.77734-0.29688-1.2344-0.29688-1.1367 0-2.0312 0.44531-2.6875 1.3281-0.64844 0.875-0.96875 2.0859-0.96875 3.625v8.375h-5.4375v-23.641h5.4375v9.125c0.82031-1 1.6914-1.7344 2.6094-2.2031 0.92578-0.46875 1.9453-0.70312 3.0625-0.70312 1.957 0 3.4453 0.60547 4.4688 1.8125 1.0195 1.1992 1.5312 2.9492 1.5312 5.25z"/>
  </symbol>
  <symbol id="q" overflow="visible">
   <path d="m2.8594-22.672h6.5312l8.25 15.547v-15.547h5.5469v22.672h-6.5469l-8.2344-15.562v15.562h-5.5469z"/>
  </symbol>
  <symbol id="p" overflow="visible">
   <path d="m2.8594-22.672h9.7031c2.8828 0 5.0977 0.64062 6.6406 1.9219 1.5508 1.2812 2.3281 3.1055 2.3281 5.4688 0 2.375-0.77734 4.2031-2.3281 5.4844-1.543 1.2812-3.7578 1.9219-6.6406 1.9219h-3.8594v7.875h-5.8438zm5.8438 4.2344v6.3281h3.2344c1.1328 0 2.0078-0.27344 2.625-0.82812 0.625-0.55078 0.9375-1.332 0.9375-2.3438 0-1.0078-0.3125-1.7852-0.9375-2.3281-0.61719-0.55078-1.4922-0.82812-2.625-0.82812z"/>
  </symbol>
  <symbol id="o" overflow="visible">
   <path d="m2.6094-17.016h5.4375v16.719c0 2.2695-0.54688 4.0039-1.6406 5.2031-1.0938 1.207-2.6797 1.8125-4.75 1.8125h-2.6875v-3.5781h0.9375c1.0312 0 1.7383-0.23438 2.125-0.70312 0.38281-0.46094 0.57812-1.3711 0.57812-2.7344zm0-6.625h5.4375v4.4375h-5.4375z"/>
  </symbol>
 </defs>
 <g>
  <path d="m107.28 331.05c8.2266 25.684 28.91 39.059 62.066 40.109 1.0469 0.039062 2.0664-0.03125 3.0508-0.20703 2.8438 4.3125 6.2109 8.4609 10.109 12.465 14.559 15.062 31.672 22.551 51.348 22.449 1.9922 0.042969 5.1641-0.29688 9.4883-1.0156 2.1914-0.35547 3.5859-0.55859 4.1953-0.61719h1.1211c3.5078 6.5469 8.4453 13.105 14.801 19.699l0.097657 0.097656c15.301 15.949 31.938 23.77 49.922 23.477 15.699-0.070312 29.445-4.4492 41.234-13.168 13.562-9.9727 20.098-21.574 19.605-34.809v-0.71484c17.172-0.57422 32.82-5.1641 46.961-13.777l0.10547-0.11328c18.898-11.852 28.055-26.312 27.457-43.383 0.11328-5.8906-0.83984-11.566-2.8633-17.055 16.789 3.1484 33.938 5.8633 51.453 8.168 36.188 4.7461 60.762 6.1055 73.703 4.082 0.070313-0.039063 0.13672-0.074219 0.20703-0.10547 16.789-2.6016 29.688-11.961 38.691-28.07l-0.10547 0.097656c9.4961-15.867 9.2969-33.793-0.61719-53.797-8.0078-19.68-33.938-31.148-77.785-34.395-0.51172-0.042969-1.0273-0.074219-1.5312-0.10547 30.637-9.4531 49.285-21.336 55.938-35.621l0.10547-0.10547c10.703-19.906 12.16-35.934 4.3945-48.074-6.3281-11.754-15.816-19.844-28.48-24.297h0.19922c-10.781-4.0195-23.059-5.7852-36.855-5.3086h-0.20703c-12.523 0.11328-37.57 6.6133-75.121 19.488-29.406 10.066-53.805 19.867-73.199 29.406-4.8359-8.6797-11.578-17.516-20.211-26.539-21.957-22.93-46.117-34.246-72.477-34-18.641-0.49219-39.836 8.8711-63.598 28.074-14.074 10.926-25.836 27.762-35.328 50.523-5.7227-2.9805-11.473-4.3438-17.242-4.082-21.074-0.80859-38.023 11.672-50.836 37.465-8.7109 17.691-14.398 37.16-17.051 58.395-2.7188 21.727-0.30469 43.504 7.2539 65.363zm206.5 54.195h0.11328c9.5391 4.9961 19.543 8.6289 30.004 10.934 0.57422 1.168 1.3125 2.3008 2.2461 3.3672-0.48438 4.4492-3.2109 8.4922-8.168 12.152-7 5.1602-15.156 7.7031-24.504 7.6523-10.559-0.29297-20.426-5.2266-29.605-14.809l-0.097657-0.09375c-8.4805-8.793-12.941-17.367-13.379-25.734 0-5.0156 1.25-9.2656 3.7773-12.762l0.097656-0.097657c1.7227-2.0781 3.8281-3.1602 6.3359-3.2617 1.168-0.007813 1.9492-0.007813 2.3477 0 0.125 0.023437 0.21875 0.0625 0.31641 0.10547h-0.41016c1.5938 0.78516 3.1992 1.2617 4.7969 1.4258 5.8945 7.9883 14.605 15.023 26.129 21.121zm-171.39-165.46c6.793-13.715 15.301-20.961 25.523-21.754 2.4883 0.33594 5.0469 1.4922 7.6523 3.4727-2.0664 7.1562-3.9766 14.715-5.7227 22.668-0.81641 3.7812-0.16797 7.3242 1.9492 10.613 2.0898 3.2969 5.0195 5.375 8.7734 6.2266 3.7891 0.82031 7.3438 0.17578 10.621-1.9336 3.293-2.0898 5.3711-5.0195 6.2344-8.7852 9.0391-41.285 22.656-69.625 40.824-85.027 17.355-14.012 32.629-21.262 45.84-21.754 18.82 0.28516 36.176 8.7227 52.062 25.316v-0.10547c10.074 10.535 16.844 20.715 20.309 30.52 0.039063 0.10547 0.074219 0.20703 0.11328 0.30469 1.0586 3.7812 1.6172 7.5586 1.6289 11.332 0 6.4844-1.3984 11.785-4.1797 15.93-2.4453 3.1602-5.8906 4.6602-10.316 4.4844-6.6719-0.16797-12.762-2.9609-18.27-8.3633-8.9648-8.8867-15.531-15.281-19.699-19.195-0.55859-1.4453-1.4258-2.8125-2.5508-4.0898-2.4219-2.6836-5.418-4.207-8.9805-4.5938-3.5977-0.39844-6.8711 0.45312-9.8047 2.5508-2.918 2.1406-4.7539 4.9648-5.5078 8.4766-1.4922 4.9727-0.74219 11.848 2.2344 20.613 0.085938 0.09375 0.14453 0.19922 0.20703 0.3125 1.5039 4.0938 2.3594 7.0859 2.5508 8.9805-0.25391 8.7734-3.9258 17.859-11.02 27.258-6.5273 8.5977-13.336 13.625-20.414 15.109-3.8008 0.55859-6.875 2.3945-9.1914 5.5117-2.3711 3.1406-3.2773 6.6523-2.7578 10.516 0.55859 3.8008 2.3945 6.8711 5.5195 9.1914 3.1484 2.3594 6.6445 3.2773 10.508 2.75 13.875-1.5117 26.812-10.23 38.789-26.133 8.3359-11.02 13.578-21.848 15.711-32.461 9.9297 7.9688 20.82 11.883 32.668 11.742 14.039-0.13672 24.996-5.375 32.871-15.719l0.11328-0.20703c6.457-8.375 9.6992-19.27 9.6992-32.668 0.007813-2.6445-0.12891-5.3008-0.40625-7.957 18.941-9.5938 43.336-19.496 73.191-29.703 33.555-11.543 55.809-17.566 66.758-18.074h0.19922c9.8203-0.32422 18.562 0.90234 26.238 3.6758h0.20703c5.8359 2.0781 10.234 5.832 13.16 11.23 1.7852 5.2383 0.25 12.344-4.5859 21.336l0.10547-0.09375c-7.2734 10.934-27.621 20.254-61.047 27.961l0.10547-0.097656c-39.461 8.9414-76.652 18.836-111.58 29.703-3.4766 1.0938-6.1289 3.2422-7.957 6.4258-1.8672 3.1875-2.4062 6.5586-1.6367 10.105 0.83203 3.5586 2.7695 6.3789 5.832 8.4805 2.9922 2.1211 6.2969 2.9375 9.8984 2.4453 53.934-7.5898 98.82-10.137 134.64-7.6523 29.719 2.1953 47.887 8.4258 54.52 18.68 5.0586 10.23 5.543 19.363 1.4258 27.465l-0.10547 0.097657c-4.332 7.8516-10.496 12.512-18.473 13.988l0.19922-0.11328c-11.547 1.5195-33.539 0.15625-65.941-4.0742-33.465-4.3984-65.582-10.309-96.355-17.758-2.8633-0.94141-5.8555-1.6562-8.9922-2.1484-0.25391-0.042969-0.48438-0.074219-0.70312-0.10547-1.2578-0.12891-2.5898-0.27344-3.9883-0.40625-3.8594-0.40625-7.3047 0.61719-10.309 3.0625-3.0039 2.4648-4.7148 5.6367-5.0977 9.4961-0.40625 3.8516 0.61719 7.293 3.0547 10.297 2.4766 3.0195 5.6445 4.7148 9.4961 5.1094 1.0625 0.11328 2.0859 0.21875 3.0625 0.3125 0.23828 0.042968 0.47266 0.074218 0.71484 0.10547 1.1328 0.21875 2.2539 0.48438 3.3672 0.81641 0.3125 0.13672 0.64844 0.27344 1.0195 0.40625 5.0391 1.75 9.832 4.6484 14.391 8.6797l0.10547 0.10547c6.2539 5.75 9.5156 12.047 9.8008 18.883-0.58984 7.4219-5.3125 13.918-14.191 19.5l0.11328-0.10547c-10.734 6.5625-22.703 9.8242-35.934 9.8008-15.75 0.03125-30.32-3.4414-43.688-10.414h0.097656c-12.855-6.8008-19.625-15.383-20.309-25.723-0.11328-3.8945 1.4688-6.7188 4.6914-8.4805l-0.097656 0.11328c4.7305-2.3164 10.891-3.4727 18.473-3.4727 2.625 0.31641 8.1445 2.0859 16.539 5.3086 0.097656 0.039063 0.19141 0.082031 0.30469 0.097657 8.1562 3.3555 13.09 5.5625 14.801 6.6328 2.957 2.5703 6.3516 3.7266 10.211 3.4727 3.8594-0.29297 7.0547-1.9297 9.5938-4.8906 2.5742-2.9492 3.7266-6.3516 3.4766-10.211-0.3125-3.8516-1.9492-7.0508-4.9023-9.5938-2.3398-2.4531-9.9688-6.3281-22.871-11.637-0.11328-0.03125-0.20703-0.0625-0.30469-0.10547-13.488-5.1719-22.43-7.5781-26.844-7.25-13.098-0.011718-23.688 2.2344-31.746 6.7383l-0.11328 0.10547c-12.785 6.918-19.238 17.914-19.395 32.965-10.414 0.45312-19.164 5.0586-26.227 13.781l-0.11328 0.11328c-6.2578 7.7031-9.5898 17.129-10 28.266-1.0078 0.12891-2.1641 0.30469-3.4766 0.51172h-0.097656c-2.2031 0.375-3.8008 0.57812-4.7969 0.61719-11.898-0.09375-22.277-4.7227-31.137-13.875-8.5547-8.7617-13.148-18.699-13.77-29.805-0.19141-3.8945-1.7227-7.1484-4.6055-9.8008-2.8672-2.6367-6.2461-3.8594-10.098-3.6758-3.8906 0.17969-7.1562 1.7109-9.793 4.5859s-3.8633 6.2422-3.6836 10.105c0.097656 2.3594 0.30469 4.6719 0.60937 6.9492-13.887-2.2656-23.078-9.0391-27.551-20.316-6.0664-17.629-7.9961-35.176-5.8359-52.672 2.2227-17.969 7.0195-34.438 14.363-49.41z"/>
  <use x="70" y="653.332031" xlink:href="#k"/>
  <use x="92.832031" y="653.332031" xlink:href="#d"/>
  <use x="108.175781" y="653.332031" xlink:href="#c"/>
  <use x="129.273437" y="653.332031" xlink:href="#e"/>
  <use x="150.269531" y="653.332031" xlink:href="#b"/>
  <use x="165.140625" y="653.332031" xlink:href="#c"/>
  <use x="186.242188" y="653.332031" xlink:href="#n"/>
  <use x="219.34375" y="653.332031" xlink:href="#m"/>
  <use x="241.613281" y="653.332031" xlink:href="#l"/>
  <use x="272.722656" y="653.332031" xlink:href="#k"/>
  <use x="295.554688" y="653.332031" xlink:href="#d"/>
  <use x="310.898438" y="653.332031" xlink:href="#f"/>
  <use x="321.5625" y="653.332031" xlink:href="#j"/>
  <use x="340.082031" y="653.332031" xlink:href="#b"/>
  <use x="354.953125" y="653.332031" xlink:href="#f"/>
  <use x="365.617187" y="653.332031" xlink:href="#e"/>
  <use x="386.609375" y="653.332031" xlink:href="#i"/>
  <use x="408.757812" y="653.332031" xlink:href="#a"/>
  <use x="440.964844" y="653.332031" xlink:href="#u"/>
  <use x="463.523437" y="653.332031" xlink:href="#a"/>
  <use x="484.894531" y="653.332031" xlink:href="#h"/>
  <use x="507.042969" y="653.332031" xlink:href="#g"/>
  <use x="525.484375" y="653.332031" xlink:href="#e"/>
  <use x="546.480469" y="653.332031" xlink:href="#j"/>
  <use x="70" y="684.445312" xlink:href="#t"/>
  <use x="83.535156" y="684.445312" xlink:href="#d"/>
  <use x="98.878906" y="684.445312" xlink:href="#a"/>
  <use x="120.25" y="684.445312" xlink:href="#s"/>
  <use x="163.5" y="684.445312" xlink:href="#b"/>
  <use x="178.371094" y="684.445312" xlink:href="#r"/>
  <use x="200.519531" y="684.445312" xlink:href="#c"/>
  <use x="232.453125" y="684.445312" xlink:href="#q"/>
  <use x="258.488281" y="684.445312" xlink:href="#a"/>
  <use x="279.863281" y="684.445312" xlink:href="#h"/>
  <use x="302.011719" y="684.445312" xlink:href="#i"/>
  <use x="334.992188" y="684.445312" xlink:href="#p"/>
  <use x="357.792969" y="684.445312" xlink:href="#d"/>
  <use x="373.136719" y="684.445312" xlink:href="#a"/>
  <use x="394.507812" y="684.445312" xlink:href="#o"/>
  <use x="405.171875" y="684.445312" xlink:href="#c"/>
  <use x="426.273437" y="684.445312" xlink:href="#g"/>
  <use x="444.714844" y="684.445312" xlink:href="#b"/>
 </g>
</svg>
