<?xml version="1.0" encoding="UTF-8"?>
<svg width="700pt" height="700pt" version="1.1" viewBox="0 0 700 700" xmlns="http://www.w3.org/2000/svg" xmlns:xlink="http://www.w3.org/1999/xlink">
 <defs>
  <symbol id="k" overflow="visible">
   <path d="m20.844-1.25c-1.0742 0.5625-2.1953 0.98438-3.3594 1.2656-1.168 0.28125-2.3828 0.42188-3.6406 0.42188-3.7812 0-6.7773-1.0508-8.9844-3.1562-2.2109-2.1133-3.3125-4.9766-3.3125-8.5938 0-3.625 1.1016-6.4922 3.3125-8.6094 2.207-2.1133 5.2031-3.1719 8.9844-3.1719 1.2578 0 2.4727 0.14844 3.6406 0.4375 1.1641 0.28125 2.2852 0.69922 3.3594 1.25v4.7031c-1.0859-0.73828-2.1523-1.2812-3.2031-1.625-1.0547-0.34375-2.1641-0.51562-3.3281-0.51562-2.0859 0-3.7266 0.66797-4.9219 2-1.1992 1.3359-1.7969 3.1797-1.7969 5.5312 0 2.3359 0.59766 4.1719 1.7969 5.5156 1.1953 1.3359 2.8359 2 4.9219 2 1.1641 0 2.2734-0.17188 3.3281-0.51562 1.0508-0.34375 2.1172-0.88281 3.2031-1.625z"/>
  </symbol>
  <symbol id="d" overflow="visible">
   <path d="m15.25-12.375c-0.48047-0.22656-0.95312-0.39453-1.4219-0.5-0.46875-0.10156-0.94531-0.15625-1.4219-0.15625-1.3984 0-2.4766 0.44922-3.2344 1.3438-0.75 0.89844-1.125 2.1797-1.125 3.8438v7.8438h-5.4375v-17.016h5.4375v2.7969c0.69531-1.1133 1.5-1.9258 2.4062-2.4375 0.90625-0.50781 1.9922-0.76562 3.2656-0.76562 0.17578 0 0.36719 0.011719 0.57812 0.03125 0.21875 0.011719 0.53125 0.042969 0.9375 0.09375z"/>
  </symbol>
  <symbol id="c" overflow="visible">
   <path d="m19.594-8.5469v1.5469h-12.719c0.13281 1.2734 0.59766 2.2305 1.3906 2.875 0.78906 0.63672 1.8945 0.95312 3.3125 0.95312 1.1445 0 2.3164-0.16406 3.5156-0.5 1.1953-0.34375 2.4297-0.85938 3.7031-1.5469v4.1875c-1.293 0.49219-2.5859 0.85547-3.875 1.0938-1.2812 0.25-2.5625 0.375-3.8438 0.375-3.0859 0-5.4805-0.78125-7.1875-2.3438-1.6992-1.5625-2.5469-3.7539-2.5469-6.5781 0-2.7812 0.83203-4.9609 2.5-6.5469 1.6758-1.5938 3.9844-2.3906 6.9219-2.3906 2.6758 0 4.8164 0.80859 6.4219 2.4219 1.6016 1.6055 2.4062 3.7578 2.4062 6.4531zm-5.5938-1.8125c0-1.0312-0.30469-1.8633-0.90625-2.5-0.59375-0.63281-1.3828-0.95312-2.3594-0.95312-1.0547 0-1.9062 0.29688-2.5625 0.89062s-1.0703 1.4492-1.2344 2.5625z"/>
  </symbol>
  <symbol id="e" overflow="visible">
   <path d="m10.234-7.6562c-1.1367 0-1.9922 0.19531-2.5625 0.57812-0.5625 0.38672-0.84375 0.95312-0.84375 1.7031 0 0.6875 0.22656 1.2305 0.6875 1.625 0.45703 0.38672 1.0977 0.57812 1.9219 0.57812 1.0195 0 1.8789-0.36328 2.5781-1.0938 0.69531-0.73828 1.0469-1.6602 1.0469-2.7656v-0.625zm8.3125-2.0469v9.7031h-5.4844v-2.5156c-0.73047 1.0312-1.5547 1.7812-2.4688 2.25-0.90625 0.46875-2.0117 0.70312-3.3125 0.70312-1.7617 0-3.1953-0.50781-4.2969-1.5312-1.0938-1.0312-1.6406-2.3672-1.6406-4.0156 0-1.9883 0.67969-3.4453 2.0469-4.375 1.375-0.9375 3.5312-1.4062 6.4688-1.4062h3.2031v-0.42188c0-0.86328-0.33984-1.4922-1.0156-1.8906-0.67969-0.40625-1.7344-0.60938-3.1719-0.60938-1.168 0-2.2578 0.12109-3.2656 0.35938-1 0.23047-1.9297 0.57812-2.7812 1.0469v-4.1562c1.1641-0.28125 2.332-0.49219 3.5-0.64062 1.1758-0.14453 2.3516-0.21875 3.5312-0.21875 3.0703 0 5.2852 0.60547 6.6406 1.8125 1.3633 1.2109 2.0469 3.1797 2.0469 5.9062z"/>
  </symbol>
  <symbol id="b" overflow="visible">
   <path d="m8.5469-21.844v4.8281h5.6094v3.8906h-5.6094v7.2188c0 0.79297 0.15625 1.3281 0.46875 1.6094 0.32031 0.27344 0.94531 0.40625 1.875 0.40625h2.7969v3.8906h-4.6719c-2.1484 0-3.668-0.44531-4.5625-1.3438-0.89844-0.89453-1.3438-2.4141-1.3438-4.5625v-7.2188h-2.7031v-3.8906h2.7031v-4.8281z"/>
  </symbol>
  <symbol id="n" overflow="visible">
   <path d="m14.188-14.516v-9.125h5.4688v23.641h-5.4688v-2.4531c-0.75 1-1.5781 1.7344-2.4844 2.2031-0.89844 0.45703-1.9375 0.6875-3.125 0.6875-2.0938 0-3.8203-0.83203-5.1719-2.5-1.3438-1.6641-2.0156-3.8047-2.0156-6.4219 0-2.625 0.67188-4.7695 2.0156-6.4375 1.3516-1.6641 3.0781-2.5 5.1719-2.5 1.1758 0 2.2188 0.23438 3.125 0.70312s1.7344 1.2031 2.4844 2.2031zm-3.5781 11c1.1562 0 2.0391-0.42188 2.6562-1.2656 0.61328-0.85156 0.92188-2.0859 0.92188-3.7031 0-1.625-0.30859-2.8594-0.92188-3.7031-0.61719-0.85156-1.5-1.2812-2.6562-1.2812s-2.043 0.42969-2.6562 1.2812c-0.61719 0.84375-0.92188 2.0781-0.92188 3.7031 0 1.6172 0.30469 2.8516 0.92188 3.7031 0.61328 0.84375 1.5 1.2656 2.6562 1.2656z"/>
  </symbol>
  <symbol id="m" overflow="visible">
   <path d="m11.672-3.5156c1.1562 0 2.0391-0.42188 2.6562-1.2656 0.61328-0.85156 0.92188-2.0859 0.92188-3.7031 0-1.625-0.30859-2.8594-0.92188-3.7031-0.61719-0.85156-1.5-1.2812-2.6562-1.2812-1.168 0-2.0625 0.42969-2.6875 1.2812-0.625 0.85547-0.9375 2.0898-0.9375 3.7031 0 1.6055 0.3125 2.8359 0.9375 3.6875 0.625 0.85547 1.5195 1.2812 2.6875 1.2812zm-3.625-11c0.75-1 1.5781-1.7344 2.4844-2.2031 0.91406-0.46875 1.9688-0.70312 3.1562-0.70312 2.0938 0 3.8125 0.83594 5.1562 2.5 1.3516 1.668 2.0312 3.8125 2.0312 6.4375 0 2.6172-0.67969 4.7578-2.0312 6.4219-1.3438 1.668-3.0625 2.5-5.1562 2.5-1.1875 0-2.2422-0.23438-3.1562-0.70312-0.90625-0.46875-1.7344-1.1953-2.4844-2.1875v2.4531h-5.4375v-23.641h5.4375z"/>
  </symbol>
  <symbol id="l" overflow="visible">
   <path d="m0.375-17.016h5.4375l4.5781 11.547 3.8906-11.547h5.4375l-7.1562 18.625c-0.71875 1.8945-1.5586 3.2188-2.5156 3.9688-0.96094 0.75781-2.2188 1.1406-3.7812 1.1406h-3.1562v-3.5781h1.7031c0.92578 0 1.5977-0.14844 2.0156-0.4375 0.41406-0.29297 0.74219-0.82031 0.98438-1.5781l0.14062-0.46875z"/>
  </symbol>
  <symbol id="f" overflow="visible">
   <path d="m2.6094-17.016h5.4375v17.016h-5.4375zm0-6.625h5.4375v4.4375h-5.4375z"/>
  </symbol>
  <symbol id="j" overflow="visible">
   <path d="m15.906-16.484v4.1406c-1.168-0.48828-2.293-0.85156-3.375-1.0938-1.0859-0.25-2.1055-0.375-3.0625-0.375-1.043 0-1.8125 0.13281-2.3125 0.39062-0.5 0.26172-0.75 0.65625-0.75 1.1875 0 0.4375 0.1875 0.77734 0.5625 1.0156 0.38281 0.23047 1.0664 0.40234 2.0469 0.51562l0.96875 0.125c2.7812 0.35547 4.6484 0.9375 5.6094 1.75 0.96875 0.8125 1.4531 2.0859 1.4531 3.8125 0 1.8125-0.67188 3.1797-2.0156 4.0938-1.3359 0.90625-3.3281 1.3594-5.9844 1.3594-1.1172 0-2.2773-0.089844-3.4844-0.26562-1.1992-0.17578-2.4297-0.44141-3.6875-0.79688v-4.125c1.082 0.52344 2.1914 0.91797 3.3281 1.1875 1.1328 0.26172 2.2891 0.39062 3.4688 0.39062 1.0625 0 1.8594-0.14453 2.3906-0.4375 0.53906-0.30078 0.8125-0.73828 0.8125-1.3125 0-0.48828-0.1875-0.84766-0.5625-1.0781-0.36719-0.23828-1.1016-0.42578-2.2031-0.5625l-0.95312-0.125c-2.418-0.30078-4.1172-0.85938-5.0938-1.6719-0.96875-0.82031-1.4531-2.0703-1.4531-3.75 0-1.8008 0.61328-3.1328 1.8438-4 1.2383-0.875 3.1328-1.3125 5.6875-1.3125 1 0 2.0508 0.078125 3.1562 0.23438 1.1016 0.14844 2.3047 0.38281 3.6094 0.70312z"/>
  </symbol>
  <symbol id="i" overflow="visible">
   <path d="m19.719-10.359v10.359h-5.4688v-7.9219c0-1.4688-0.039062-2.4766-0.10938-3.0312-0.0625-0.5625-0.17188-0.97656-0.32812-1.25-0.21875-0.35156-0.51172-0.62891-0.875-0.82812-0.36719-0.19531-0.77734-0.29688-1.2344-0.29688-1.1367 0-2.0312 0.44531-2.6875 1.3281-0.64844 0.875-0.96875 2.0859-0.96875 3.625v8.375h-5.4375v-17.016h5.4375v2.5c0.82031-1 1.6914-1.7344 2.6094-2.2031 0.92578-0.46875 1.9453-0.70312 3.0625-0.70312 1.957 0 3.4453 0.60547 4.4688 1.8125 1.0195 1.1992 1.5312 2.9492 1.5312 5.25z"/>
  </symbol>
  <symbol id="a" overflow="visible">
   <path d="m10.703-13.531c-1.1992 0-2.1172 0.43359-2.75 1.2969-0.63672 0.86719-0.95312 2.1172-0.95312 3.75 0 1.625 0.31641 2.8711 0.95312 3.7344 0.63281 0.86719 1.5508 1.2969 2.75 1.2969 1.1875 0 2.0938-0.42969 2.7188-1.2969 0.63281-0.86328 0.95312-2.1094 0.95312-3.7344 0-1.6328-0.32031-2.8828-0.95312-3.75-0.625-0.86328-1.5312-1.2969-2.7188-1.2969zm0-3.8906c2.9258 0 5.2109 0.79297 6.8594 2.375 1.6445 1.5742 2.4688 3.7617 2.4688 6.5625 0 2.793-0.82422 4.9805-2.4688 6.5625-1.6484 1.5742-3.9336 2.3594-6.8594 2.3594-2.9375 0-5.2344-0.78516-6.8906-2.3594-1.6484-1.582-2.4688-3.7695-2.4688-6.5625 0-2.8008 0.82031-4.9883 2.4688-6.5625 1.6562-1.582 3.9531-2.375 6.8906-2.375z"/>
  </symbol>
  <symbol id="u" overflow="visible">
   <path d="m1.75-22.672h19.062v3.5312l-12.172 14.719h12.516v4.4219h-19.766v-3.5469l12.172-14.719h-11.812z"/>
  </symbol>
  <symbol id="h" overflow="visible">
   <path d="m2.4375-6.625v-10.391h5.4688v1.7031c0 0.92969-0.007812 2.0898-0.015625 3.4844-0.011719 1.3867-0.015625 2.3125-0.015625 2.7812 0 1.3672 0.03125 2.3516 0.09375 2.9531 0.070312 0.60547 0.19531 1.043 0.375 1.3125 0.21875 0.35547 0.50391 0.63281 0.85938 0.82812 0.36328 0.1875 0.78125 0.28125 1.25 0.28125 1.1328 0 2.0234-0.42969 2.6719-1.2969 0.64453-0.875 0.96875-2.0859 0.96875-3.6406v-8.4062h5.4375v17.016h-5.4375v-2.4531c-0.82422 0.99219-1.6953 1.7188-2.6094 2.1875-0.91797 0.46875-1.9297 0.70312-3.0312 0.70312-1.9609 0-3.4531-0.59766-4.4844-1.7969-1.0234-1.207-1.5312-2.9609-1.5312-5.2656z"/>
  </symbol>
  <symbol id="g" overflow="visible">
   <path d="m16.359-16.484v4.4375c-0.74219-0.50781-1.4844-0.88281-2.2344-1.125-0.74219-0.23828-1.5117-0.35938-2.3125-0.35938-1.5117 0-2.6953 0.44531-3.5469 1.3281-0.84375 0.88672-1.2656 2.125-1.2656 3.7188 0 1.5859 0.42188 2.8203 1.2656 3.7031 0.85156 0.88672 2.0352 1.3281 3.5469 1.3281 0.85156 0 1.6602-0.125 2.4219-0.375 0.76953-0.25 1.4766-0.625 2.125-1.125v4.4531c-0.85547 0.3125-1.7188 0.54688-2.5938 0.70312s-1.75 0.23438-2.625 0.23438c-3.0742 0-5.4766-0.78516-7.2031-2.3594-1.7305-1.5703-2.5938-3.7578-2.5938-6.5625 0-2.8125 0.86328-5.0039 2.5938-6.5781 1.7266-1.5703 4.1289-2.3594 7.2031-2.3594 0.88281 0 1.7578 0.078125 2.625 0.23438 0.86328 0.15625 1.7266 0.39062 2.5938 0.70312z"/>
  </symbol>
  <symbol id="t" overflow="visible">
   <path d="m13.812-23.641v3.5781h-3.0156c-0.77344 0-1.3086 0.14062-1.6094 0.42188-0.30469 0.27344-0.45312 0.75-0.45312 1.4375v1.1875h4.6406v3.8906h-4.6406v13.125h-5.4375v-13.125h-2.7031v-3.8906h2.7031v-1.1875c0-1.8516 0.51562-3.2227 1.5469-4.1094 1.0312-0.88281 2.6289-1.3281 4.7969-1.3281z"/>
  </symbol>
  <symbol id="s" overflow="visible">
   <path d="m18.375-14.188c0.6875-1.0508 1.5039-1.8516 2.4531-2.4062 0.94531-0.55078 1.9883-0.82812 3.125-0.82812 1.957 0 3.4453 0.60547 4.4688 1.8125 1.0195 1.1992 1.5312 2.9492 1.5312 5.25v10.359h-5.4688v-8.875c0.007813-0.125 0.015625-0.25781 0.015625-0.40625 0.007812-0.14453 0.015625-0.34766 0.015625-0.60938 0-1.207-0.17969-2.082-0.53125-2.625-0.35547-0.53906-0.92969-0.8125-1.7188-0.8125-1.0312 0-1.8281 0.42969-2.3906 1.2812-0.5625 0.85547-0.85547 2.0859-0.875 3.6875v8.3594h-5.4688v-8.875c0-1.8828-0.16406-3.0977-0.48438-3.6406-0.32422-0.53906-0.90234-0.8125-1.7344-0.8125-1.043 0-1.8516 0.43359-2.4219 1.2969-0.5625 0.85547-0.84375 2.0742-0.84375 3.6562v8.375h-5.4688v-17.016h5.4688v2.5c0.66406-0.96875 1.4297-1.6914 2.2969-2.1719 0.875-0.48828 1.832-0.73438 2.875-0.73438 1.1758 0 2.2109 0.28906 3.1094 0.85938 0.90625 0.5625 1.5859 1.3555 2.0469 2.375z"/>
  </symbol>
  <symbol id="r" overflow="visible">
   <path d="m19.719-10.359v10.359h-5.4688v-7.9062c0-1.4766-0.039062-2.4922-0.10938-3.0469-0.0625-0.5625-0.17188-0.97656-0.32812-1.25-0.21875-0.35156-0.51172-0.62891-0.875-0.82812-0.36719-0.19531-0.77734-0.29688-1.2344-0.29688-1.1367 0-2.0312 0.44531-2.6875 1.3281-0.64844 0.875-0.96875 2.0859-0.96875 3.625v8.375h-5.4375v-23.641h5.4375v9.125c0.82031-1 1.6914-1.7344 2.6094-2.2031 0.92578-0.46875 1.9453-0.70312 3.0625-0.70312 1.957 0 3.4453 0.60547 4.4688 1.8125 1.0195 1.1992 1.5312 2.9492 1.5312 5.25z"/>
  </symbol>
  <symbol id="q" overflow="visible">
   <path d="m2.8594-22.672h6.5312l8.25 15.547v-15.547h5.5469v22.672h-6.5469l-8.2344-15.562v15.562h-5.5469z"/>
  </symbol>
  <symbol id="p" overflow="visible">
   <path d="m2.8594-22.672h9.7031c2.8828 0 5.0977 0.64062 6.6406 1.9219 1.5508 1.2812 2.3281 3.1055 2.3281 5.4688 0 2.375-0.77734 4.2031-2.3281 5.4844-1.543 1.2812-3.7578 1.9219-6.6406 1.9219h-3.8594v7.875h-5.8438zm5.8438 4.2344v6.3281h3.2344c1.1328 0 2.0078-0.27344 2.625-0.82812 0.625-0.55078 0.9375-1.332 0.9375-2.3438 0-1.0078-0.3125-1.7852-0.9375-2.3281-0.61719-0.55078-1.4922-0.82812-2.625-0.82812z"/>
  </symbol>
  <symbol id="o" overflow="visible">
   <path d="m2.6094-17.016h5.4375v16.719c0 2.2695-0.54688 4.0039-1.6406 5.2031-1.0938 1.207-2.6797 1.8125-4.75 1.8125h-2.6875v-3.5781h0.9375c1.0312 0 1.7383-0.23438 2.125-0.70312 0.38281-0.46094 0.57812-1.3711 0.57812-2.7344zm0-6.625h5.4375v4.4375h-5.4375z"/>
  </symbol>
 </defs>
 <g>
  <path d="m504.35 126.54c-6.8828-1.1758-13.379-1.0469-19.465 0.39844-0.25-9.0352-0.67187-18.09-1.293-27.141v-0.097657c-1.1328-13.402-6.6445-24.508-16.559-33.332-10.211-9.1016-22.09-13.203-35.641-12.27-10.695 0.71484-20.004 4.4062-27.938 11.07-0.70312-5.0586-1.418-8.4922-2.0977-10.277l-0.09375-0.19922c-5.2812-14.137-14.391-24.949-27.352-32.438l-0.097656-0.09375c-14.012-8.2305-29.219-8.7969-45.609-1.6992h0.10547c-16.668 6.6133-26.773 20.949-30.332 43.016v-0.19922c-0.61719 3.2305-1.0703 6.7812-1.3984 10.676-1.4688-0.94531-3.043-1.8125-4.6836-2.5938l-0.20703-0.097657c-12.07-5.4688-24.402-6.1055-37.023-1.8984-0.074218 0.039063-0.17969 0.070313-0.29297 0.097656-12.574 4.5664-21.859 12.617-27.84 24.148v-0.097657c-5.7188 10.051-7.7461 24.125-6.0898 42.207h-0.097656c1.0703 13.141 13.004 67.594 35.82 163.36-0.46484-0.26562-0.93359-0.52734-1.3945-0.79688h0.097657c-11.703-6.9062-24.57-12.195-38.621-15.871l0.097656 0.097656c-15.688-4.375-32.41-2.8438-50.188 4.5938-21.098 8.625-30.152 24.789-27.148 48.496v0.11328c2.2461 22.828 17.379 37.602 45.402 44.297 17.871 4.2266 29.711 8.418 35.523 12.574l0.10547 0.097657c5.2461 4.6172 10.832 12.164 16.762 22.656 0.03125 0.074218 0.054688 0.13672 0.097657 0.19922 8.1758 14.996 20.613 26.676 37.32 35.023h-0.097656c4.9297 2.5312 9.9805 4.7617 15.168 6.6875-5.3945 8.3125-7.8203 15.562-7.2852 21.754-0.80859 20.641 11.395 37.133 36.617 49.496l-0.097656-0.10547c17.188 8.6992 36.246 14.359 57.184 16.969h0.10547c21.145 2.5391 42.375 0.20703 63.66-6.9805l0.10547-0.10547c25.102-8.0469 38.191-28.281 39.207-60.668 0.074219-1.7227-0.16016-3.3086-0.69141-4.7969 48.348-27.473 62.152-82.488 41.422-165.06 13.539-41.59 22.418-84.465 26.637-128.63v-0.09375c1.1992-12.508-2.2969-23.883-10.484-34.129-8.2305-10.25-18.668-16.375-31.32-18.359zm-12.27 176.23c-0.85938 2.6133-0.92578 5.2461-0.21094 7.8828 21.238 81.133 3.6914 130.59-52.684 148.39-3.6328 1.0703-6.3594 3.2617-8.1836 6.5898-1.8164 3.3477-2.1836 6.8438-1.1016 10.484 1.0586 3.6289 3.2539 6.3516 6.5938 8.1758 3.3398 1.8242 6.8398 2.1914 10.473 1.1094 1.2383-0.34766 2.4648-0.71484 3.6953-1.1094-2.0664 14.207-8.7422 23.559-20.059 28.051l0.10547-0.10547c-17.254 5.8359-34.453 7.7734-51.594 5.793-17.641-2.1836-33.719-6.9023-48.199-14.168l-0.10547-0.10547c-13.371-6.5469-20.465-14.789-21.262-24.754 0.69141-3.5391 3.4844-8.2617 8.3945-14.168 2.0234 0.34766 4.0508 0.64844 6.0781 0.90234 3.7656 0.46484 7.1562-0.46484 10.188-2.793 2.9922-2.3477 4.7227-5.4062 5.1875-9.1836 0.48047-3.7656-0.46094-7.1562-2.793-10.172-2.3477-3-5.4062-4.7305-9.1797-5.1953-14.598-1.793-28.168-5.9102-40.711-12.371h-0.10547c-11.43-5.7109-19.984-13.664-25.648-23.863l-0.09375-0.1875c-8.1016-14.359-15.891-24.527-23.352-30.539l-0.097657-0.10547c-7.2656-6.4336-22.812-12.449-46.609-18.059-14.254-3.4023-22.414-10.422-24.445-21.055v-0.097656c-1.2266-9.5 2.2266-16.055 10.387-19.664 11.5-4.7969 22.309-5.9414 32.438-3.3906l0.09375 0.10547c11.5 2.9805 22.047 7.2656 31.633 12.867h0.097656c11.809 6.8867 22.25 11.117 31.336 12.676 0.27344 0.085937 0.53516 0.14844 0.78906 0.19922 0.51563 0.09375 1.0586 0.15625 1.5977 0.19141 4.3945 0.31641 12.613 0.17578 24.645-0.39062h0.19922c9.4688-0.34766 21.344 2.5742 35.629 8.7812v0.097656c13.977 6.3203 25.305 18.398 34.035 36.227 1.668 3.4023 4.2891 5.7305 7.8828 6.9883 3.5664 1.2578 7.0703 1.0586 10.473-0.59766 3.4219-1.6797 5.75-4.3047 6.9922-7.8945 1.25-3.5547 1.0508-7.0508-0.60547-10.473-12.059-24.754-27.977-41.285-47.805-49.605v0.10547c-19.145-8.3945-35.148-12.113-47.992-11.18h-0.19922c-4.4258 0.20703-8.2578 0.34375-11.473 0.39844-24.547-102.66-37.422-160.75-38.621-174.23h-0.10547c-1-11.457 0.023438-20.402 3.0977-26.848v-0.097656c2.75-5.1523 6.9297-8.7734 12.57-10.875 0.10547-0.03125 0.19922-0.070313 0.29688-0.097656 5.5742-1.7852 11.031-1.4805 16.371 0.89453 0.070312 0.039062 0.13672 0.070312 0.20703 0.10547 4.8984 2.375 8.2812 6.0977 10.18 11.168l-0.097656-0.09375c2.9883 8.2461 5.7109 16.562 8.1758 24.945 0.0625 0.25391 0.12891 0.51562 0.20703 0.79688 0.46094 1.3008 1.5508 4.9297 3.2852 10.883 0.050781 0.29297 0.11719 0.59766 0.20703 0.89453 8.3984 28.797 16.215 67.219 23.453 115.25 0.55469 3.7812 2.3477 6.8086 5.3867 9.0859 3.0859 2.2461 6.5078 3.0781 10.277 2.4961 3.7344-0.54688 6.7344-2.3516 8.9844-5.3867 2.2383-3.0547 3.0664-6.4531 2.4883-10.18-7.3672-49.391-15.344-88.945-23.949-118.64-5.0664-31.199-6.3398-54.387-3.7891-69.559v-0.19922c1.7617-10.949 6.4141-18.301 13.969-22.059h0.10547c7.5586-3.2734 14.574-3.1797 21.055 0.29688l-0.125-0.089844c7.2109 4.1797 12.312 10.203 15.27 18.062 3.1914 10.043 7.5039 72.852 12.98 188.4-0.011719 0.16016-0.011719 0.32812 0 0.49609 0.15625 3.707 1.6172 6.832 4.3945 9.375 2.7695 2.582 6.0352 3.8086 9.7734 3.6953 3.7578-0.12891 6.9609-1.5547 9.5742-4.293 2.6016-2.7109 3.8594-5.9492 3.7969-9.6836v-0.49609c-1.4609-92.871-2.3281-141.77-2.6016-146.7v-0.19922c-0.41797-5.9102 1.2305-11.102 4.9844-15.566l0.10547-0.097657c3.9648-4.5039 8.8906-6.9688 14.777-7.3867 5.875-0.40625 11.031 1.3633 15.469 5.2891 4.4102 3.9336 6.875 8.8906 7.3789 14.863 0.65234 9.3477 1.1328 18.699 1.4062 28.043 0.11719 6.625 0.19141 13.445 0.19141 20.457-0.054687 0.64844-0.054687 1.3203 0 1.9961-0.042969 33.805-2.4062 72.613-7.082 116.45-0.40625 3.7656 0.59766 7.125 2.9883 10.086 2.3711 2.9727 5.4336 4.6719 9.1797 5.0898 3.7578 0.39844 7.125-0.59766 10.078-2.9922 2.9688-2.3711 4.6719-5.4336 5.082-9.1836 4.6055-42.977 7.0312-81.27 7.2852-114.86 0.09375-0.054687 0.19141-0.125 0.30469-0.20703 4.1797-2.918 8.9727-3.9062 14.375-2.9922l0.10547 0.007813c5.7109 0.94141 10.434 3.7383 14.168 8.3867 3.5039 4.3672 5.0664 9.1914 4.6914 14.473-4.1758 43.375-13.094 85.449-26.738 126.23z"/>
  <use x="70" y="653.332031" xlink:href="#k"/>
  <use x="92.832031" y="653.332031" xlink:href="#d"/>
  <use x="108.175781" y="653.332031" xlink:href="#c"/>
  <use x="129.273437" y="653.332031" xlink:href="#e"/>
  <use x="150.269531" y="653.332031" xlink:href="#b"/>
  <use x="165.140625" y="653.332031" xlink:href="#c"/>
  <use x="186.242188" y="653.332031" xlink:href="#n"/>
  <use x="219.34375" y="653.332031" xlink:href="#m"/>
  <use x="241.613281" y="653.332031" xlink:href="#l"/>
  <use x="272.722656" y="653.332031" xlink:href="#k"/>
  <use x="295.554688" y="653.332031" xlink:href="#d"/>
  <use x="310.898438" y="653.332031" xlink:href="#f"/>
  <use x="321.5625" y="653.332031" xlink:href="#j"/>
  <use x="340.082031" y="653.332031" xlink:href="#b"/>
  <use x="354.953125" y="653.332031" xlink:href="#f"/>
  <use x="365.617187" y="653.332031" xlink:href="#e"/>
  <use x="386.609375" y="653.332031" xlink:href="#i"/>
  <use x="408.757812" y="653.332031" xlink:href="#a"/>
  <use x="440.964844" y="653.332031" xlink:href="#u"/>
  <use x="463.523437" y="653.332031" xlink:href="#a"/>
  <use x="484.894531" y="653.332031" xlink:href="#h"/>
  <use x="507.042969" y="653.332031" xlink:href="#g"/>
  <use x="525.484375" y="653.332031" xlink:href="#e"/>
  <use x="546.480469" y="653.332031" xlink:href="#j"/>
  <use x="70" y="684.445312" xlink:href="#t"/>
  <use x="83.535156" y="684.445312" xlink:href="#d"/>
  <use x="98.878906" y="684.445312" xlink:href="#a"/>
  <use x="120.25" y="684.445312" xlink:href="#s"/>
  <use x="163.5" y="684.445312" xlink:href="#b"/>
  <use x="178.371094" y="684.445312" xlink:href="#r"/>
  <use x="200.519531" y="684.445312" xlink:href="#c"/>
  <use x="232.453125" y="684.445312" xlink:href="#q"/>
  <use x="258.488281" y="684.445312" xlink:href="#a"/>
  <use x="279.863281" y="684.445312" xlink:href="#h"/>
  <use x="302.011719" y="684.445312" xlink:href="#i"/>
  <use x="334.992188" y="684.445312" xlink:href="#p"/>
  <use x="357.792969" y="684.445312" xlink:href="#d"/>
  <use x="373.136719" y="684.445312" xlink:href="#a"/>
  <use x="394.507812" y="684.445312" xlink:href="#o"/>
  <use x="405.171875" y="684.445312" xlink:href="#c"/>
  <use x="426.273437" y="684.445312" xlink:href="#g"/>
  <use x="444.714844" y="684.445312" xlink:href="#b"/>
 </g>
</svg>
